<svg version="1.2" xmlns="http://www.w3.org/2000/svg" viewBox="0 0 58 58" width="58" height="58"><style>.a{fill:#add136}</style><path class="a" d="m57 17.4c-0.5 0-0.9-0.4-0.9-1v-12.9l-10.8 10.7q1.2 1.4 2.3 2.9 0.2 0.3 0.4 0.7 0.1 0.1 0.1 0.1c2.6 4.1 4.1 8.9 4.1 14 0 14.4-11.7 26.1-26.1 26.1-14.4 0-26.1-11.7-26.1-26.1 0-14.4 11.7-26.1 26.1-26.1 5.5 0 10.5 1.7 14.7 4.5l-1.4 1.4c-3.8-2.5-8.4-4-13.3-4-13.4 0-24.2 10.8-24.2 24.2q0 0.5 0.1 1c4-4 12-12 12-12 0.4-0.4 1-0.4 1.4 0l10.2 10.3 29.3-29.3h-13.3c-0.6 0-1-0.4-1-0.9 0-0.6 0.4-1 1-1h15.4c0.6 0 1 0.4 1 1v15.4c0 0.6-0.4 1-1 1z"/></svg>